<svg 
id="Layer"
enable-background="new 0 0 64 64"
height="200"
viewBox="0 0 64 64"
width="200"
xmlns="http://www.w3.org/2000/svg"><path d="m44 20h2c1.104 0 2-.896 2-2s-.896-2-2-2h-2.202c-.929-4.559-4.969-8-9.798-8h-4c-4.829 0-8.869 3.441-9.798 8h-2.202c-1.104 0-2 .896-2 2s.896 2 2 2h2v24h-2c-1.104 0-2 .896-2 2s.896 2 2 2h2.202c.929 4.559 4.969 8 9.798 8h4c4.829 0 8.869-3.441 9.798-8h2.202c1.104 0 2-.896 2-2s-.896-2-2-2h-2zm-4 13.172-10.828 10.828h-5.172v-1.172l16-16zm-16-2.344 10.828-10.828h5.172v1.172l-16 16zm6-18.828h4c2.607 0 4.824 1.673 5.65 4h-15.3c.826-2.327 3.043-4 5.65-4zm-.828 8-5.172 5.172v-5.172zm4.828 32h-4c-2.607 0-4.824-1.673-5.65-4h15.3c-.826 2.327-3.043 4-5.65 4zm.828-8 5.172-5.172v5.172z"/></svg>